<svg width="1039" height="932" viewBox="0 0 1039 932" fill="none" xmlns="http://www.w3.org/2000/svg">
<path d="M-11.0354 1979.12C-209.286 1985.91 -396.571 1898.81 -562.693 1790.4C-727.968 1682.54 -905.639 1554.18 -954.993 1363.09C-1003.01 1177.17 -857.201 1003.67 -814.231 816.518C-775.792 649.098 -810.434 464.674 -715.806 321.312C-615.687 169.631 -459.334 48.7471 -281.796 9.87413C-108.504 -28.0699 61.7726 55.2991 229.024 114.434C387.603 170.503 536.495 238.118 666.295 345.09C816.743 469.079 1024.66 586.67 1038.04 781.166C1051.54 977.404 822.885 1097.03 729.957 1270.4C645.097 1428.72 646.685 1629.29 516.877 1753.45C375.718 1888.46 184.182 1972.44 -11.0354 1979.12Z" fill="#F3F9FC"/>
</svg>
