<svg width="965" height="892" viewBox="0 0 965 892" fill="none" xmlns="http://www.w3.org/2000/svg">
<path d="M953.965 886.748C791.915 865.701 681.537 724.161 534.833 652.181C362.675 567.712 96.4507 602.424 17.9187 427.478C-60.7614 252.2 152.47 78.3961 192.961 -109.416C229.47 -278.757 151.946 -468.704 242.914 -616.129C338.006 -770.238 506.398 -894.374 686.827 -909.788C862.409 -924.788 989.08 -745.07 1157.83 -694.288C1324.84 -644.026 1524.91 -720.303 1664.4 -615.598C1809.9 -506.382 1870.11 -315.444 1901.32 -136.21C1933.14 46.491 1924.93 239.666 1842.24 405.662C1760.87 569.02 1609.92 684.059 1449.44 770.973C1297.22 853.415 1125.64 909.045 953.965 886.748Z" fill="#ADD7E8"/>
</svg>
